<svg width="29" height="30" viewBox="0 0 29 30" fill="none" xmlns="http://www.w3.org/2000/svg">
<path d="M28 28V2C28 1.44772 27.5523 1 27 1H6C4.34315 1 3 2.34314 3 4V7.52C3 8.07228 3.44772 8.52 4 8.52H18.1526C18.7049 8.52 19.1526 8.96771 19.1526 9.52V23.68C19.1526 24.2323 18.7049 24.68 18.1526 24.68H4C3.44772 24.68 3 25.1277 3 25.68V28C3 28.5523 3.44772 29 4 29H27C27.5523 29 28 28.5523 28 28Z" stroke="white"/>
<circle cx="8.5" cy="5.5" r="1" stroke="white"/>
<circle cx="12.5" cy="5.5" r="1" stroke="white"/>
<circle cx="16.5" cy="5.5" r="1" stroke="white"/>
<path d="M11 12V10H13V12H11Z" stroke="white"/>
<path d="M6 19.265V15C6 14.4477 6.44771 14 7 14H16C16.5523 14 17 14.4477 17 15V19.265C17 24.3397 6 24.1494 6 19.265Z" stroke="white"/>
<path d="M4 15.9176V15C-0.473153 15.4941 0.502808 20.8588 4 21V19.8706C1.8041 19.0235 1.8041 16.4824 4 15.9176Z" stroke="white"/>
</svg>
