<svg width="30" height="28" viewBox="0 0 30 28" fill="none" xmlns="http://www.w3.org/2000/svg">
<path d="M8.29412 16.9049V27H1V11.8176C1 8.16109 6.2549 8.55854 7.5098 10.2278C7.76078 12.1356 11.2745 14.1493 13 14.9177C11.5569 14.9177 11.1961 17.9383 11.902 19.4485C10.9608 19.0034 9.10458 17.5673 8.29412 16.9049Z" stroke="white"/>
<path d="M15.7815 19.5279C13.7235 19.292 13.1695 15.7526 15.6232 15.2807C19.4225 14.55 20.6626 13.1308 21.4805 12.0559C23.8234 7.02206 28.5251 9.06705 29 12.0559V27H21.4805V16.8537C19.5808 19.4965 16.8896 19.659 15.7815 19.5279Z" stroke="white"/>
<circle cx="4.5" cy="3.5" r="3" stroke="white"/>
<circle cx="25.5" cy="3.5" r="3" stroke="white"/>
</svg>
