<svg width="28" height="26" viewBox="0 0 28 26" fill="none" xmlns="http://www.w3.org/2000/svg">
<path d="M27.5 19.648C27.5 20.9912 26.3891 22.0952 25 22.0952C23.6109 22.0952 22.5 20.9912 22.5 19.648C22.5 18.3048 23.6109 17.2008 25 17.2008C26.3891 17.2008 27.5 18.3048 27.5 19.648Z" stroke="white"/>
<path d="M1.47403 22.3408L4 18.5799L6.52597 22.3408H1.47403Z" stroke="white"/>
<rect x="11.5" y="0.5" width="5" height="4.89439" stroke="white"/>
<path fill-rule="evenodd" clip-rule="evenodd" d="M16 12.644C16.0855 12.4429 16.1325 12.2235 16.1325 11.9952C16.1325 11.0727 15.3663 10.2947 14.3836 10.2947C13.4009 10.2947 12.6348 11.0727 12.6348 11.9952C12.6348 12.3829 12.7701 12.7451 13 13.0347V13.508V13.7536V14.6949C12.1724 14.734 11.4813 15.2341 10.9724 16.0985C10.4494 16.9871 10.153 18.2162 10.153 19.5314H9.15295C9.15295 18.0832 9.47658 16.6684 10.1106 15.5913C10.6277 14.7129 11.3729 14.0308 12.3281 13.7882C11.8968 13.3113 11.6348 12.6833 11.6348 11.9952C11.6348 10.5037 12.8655 9.29468 14.3836 9.29468C15.9018 9.29468 17.1325 10.5037 17.1325 11.9952C17.1325 12.7284 16.835 13.3933 16.3522 13.8799C17.1661 14.1777 17.8107 14.806 18.2729 15.5913C18.907 16.6684 19.2306 18.0832 19.2306 19.5314H18.2306C18.2306 18.2162 17.9341 16.9871 17.4111 16.0985C17.0344 15.4586 16.5579 15.0184 16 14.817V13.7536V13.508V12.644Z" fill="white"/>
<path fill-rule="evenodd" clip-rule="evenodd" d="M8.94971 4.19882C5.08617 6.07541 2.4292 9.98652 2.4292 14.5073C2.4292 15.3059 2.51213 16.0856 2.66999 16.8384L3.47377 15.4707C3.44427 15.1533 3.4292 14.832 3.4292 14.5073C3.4292 10.563 5.65324 7.11438 8.94971 5.32261V4.19882ZM19.178 5.25418C22.5447 7.02561 24.8265 10.5122 24.8265 14.5073C24.8265 14.7826 24.8156 15.0556 24.7943 15.3257C24.8399 15.3244 24.8856 15.3237 24.9316 15.3237C25.2256 15.3237 25.5131 15.3516 25.7913 15.4047C25.8146 15.1086 25.8265 14.8093 25.8265 14.5073C25.8265 9.93679 23.1107 5.98944 19.178 4.13763V5.25418ZM14.1278 25C16.8927 25 19.4067 23.9736 21.3019 22.2916C21.4998 22.5607 21.7279 22.8069 21.9814 23.0254C19.9053 24.8739 17.1504 26 14.1278 26C11.4033 26 8.89627 25.085 6.90782 23.5507H8.69038L8.68641 23.544C10.279 24.4686 12.1385 25 14.1278 25Z" fill="white"/>
</svg>
