<svg width="106" height="42" viewBox="0 0 106 42" fill="none" xmlns="http://www.w3.org/2000/svg">
<path d="M10 35.4377C21.157 38.9156 29.6093 32.5646 30.4545 20.4674C30.4545 18.6528 29.846 17.5943 27.4117 16.3846" stroke="#47251B" stroke-width="2"/>
<path d="M7.1995 34.8462C4.41389 33.0023 0.938814 26.2501 1.00082 19.2558C1.00355 18.9477 1.45134 18.8104 1.68608 19.0261C6.86451 23.7839 26.0048 24.0256 30.4708 19.6126C30.4908 19.5928 30.5133 19.5755 30.5379 19.561C36.1765 16.2399 41.2373 22.9437 31.5278 31.151" stroke="#47251B" stroke-width="2"/>
<path d="M4.27271 40.2458C21.7378 42.325 36.6595 39.8003 27.8421 36.3846" stroke="#47251B" stroke-width="2" stroke-linecap="square"/>
<path d="M15.7273 16.3846C15.3617 16.0859 16.824 13.5467 11.5233 10.1113C7.28269 7.36296 9.75636 2.89196 11.5233 1" stroke="#47251B" stroke-width="2"/>
<path d="M15.9249 18.6923C20.4415 17.626 22.2159 14.2749 18.9898 10.6192C16.5702 7.87738 13.6344 5.74486 14.1505 3.30769" stroke="#47251B" stroke-width="2"/>
<path d="M60.202 25.034C59.5887 25.3867 58.9293 25.6703 58.224 25.885C57.534 26.0843 56.798 26.184 56.016 26.184C54.8813 26.184 53.8157 25.9693 52.819 25.54C51.8223 25.1107 50.956 24.5203 50.22 23.769C49.4687 23.033 48.8783 22.1667 48.449 21.17C48.0197 20.1733 47.805 19.1077 47.805 17.973C47.805 16.8383 48.0197 15.7727 48.449 14.776C48.8783 13.764 49.4687 12.8823 50.22 12.131C50.956 11.395 51.8223 10.8123 52.819 10.383C53.8157 9.93833 54.8813 9.716 56.016 9.716C56.798 9.716 57.534 9.81567 58.224 10.015C58.9293 10.2143 59.5963 10.498 60.225 10.866V13.442H59.328V11.441C58.822 11.1803 58.2853 10.981 57.718 10.843C57.166 10.6897 56.5987 10.613 56.016 10.613C55.004 10.613 54.061 10.8123 53.187 11.211C52.313 11.5943 51.5463 12.1233 50.887 12.798C50.2277 13.4573 49.7063 14.2393 49.323 15.144C48.9397 16.0333 48.748 16.984 48.748 17.996C48.748 18.9927 48.9397 19.9357 49.323 20.825C49.7063 21.7143 50.2277 22.481 50.887 23.125C51.531 23.7843 52.29 24.3133 53.164 24.712C54.038 25.0953 54.9733 25.287 55.97 25.287C56.6447 25.287 57.2887 25.2027 57.902 25.034C58.5307 24.85 59.121 24.597 59.673 24.275L60.202 25.034ZM69.6171 24.85C69.2031 25.264 68.7124 25.586 68.1451 25.816C67.5931 26.046 67.0028 26.161 66.3741 26.161C65.7301 26.161 65.1321 26.046 64.5801 25.816C64.0434 25.586 63.5758 25.264 63.1771 24.85C62.7631 24.4513 62.4411 23.9837 62.2111 23.447C61.9811 22.895 61.8661 22.3047 61.8661 21.676C61.8661 21.0627 61.9811 20.48 62.2111 19.928C62.4411 19.376 62.7631 18.893 63.1771 18.479C63.5758 18.0803 64.0511 17.766 64.6031 17.536C65.1551 17.2907 65.7454 17.168 66.3741 17.168C67.0028 17.168 67.5931 17.2907 68.1451 17.536C68.7124 17.766 69.2031 18.0803 69.6171 18.479C70.0158 18.893 70.3301 19.376 70.5601 19.928C70.8054 20.48 70.9281 21.0627 70.9281 21.676C70.9281 22.3047 70.8054 22.8873 70.5601 23.424C70.3301 23.9607 70.0158 24.436 69.6171 24.85ZM63.8441 24.183C64.1661 24.5203 64.5418 24.781 64.9711 24.965C65.4004 25.149 65.8604 25.241 66.3511 25.241C66.8418 25.241 67.3018 25.149 67.7311 24.965C68.1758 24.781 68.5591 24.5203 68.8811 24.183C69.2184 23.8763 69.4791 23.5083 69.6631 23.079C69.8471 22.6497 69.9391 22.182 69.9391 21.676C69.9391 21.2007 69.8471 20.7483 69.6631 20.319C69.4791 19.8743 69.2184 19.4833 68.8811 19.146C68.5591 18.824 68.1758 18.571 67.7311 18.387C67.3018 18.203 66.8418 18.111 66.3511 18.111C65.8604 18.111 65.4004 18.203 64.9711 18.387C64.5418 18.571 64.1661 18.824 63.8441 19.146C63.5221 19.4833 63.2691 19.8667 63.0851 20.296C62.9011 20.7253 62.8091 21.1853 62.8091 21.676C62.8091 22.182 62.9011 22.6497 63.0851 23.079C63.2691 23.5083 63.5221 23.8763 63.8441 24.183ZM76.9735 26H72.5345V25.103H73.9375V18.295H72.5345V17.375H73.9375V14.086C73.9375 13.2427 74.0602 12.4913 74.3055 11.832C74.5508 11.1727 74.8882 10.6207 75.3175 10.176C75.7468 9.73133 76.2452 9.394 76.8125 9.164C77.3952 8.91867 78.0238 8.78067 78.6985 8.75V9.647C78.1772 9.66233 77.6788 9.76967 77.2035 9.969C76.7435 10.1683 76.3448 10.4597 76.0075 10.843C75.6548 11.2263 75.3788 11.6863 75.1795 12.223C74.9802 12.7597 74.8805 13.373 74.8805 14.063V17.375H77.7555V18.295H74.8805V25.103H76.9735V26ZM83.9364 26H79.4974V25.103H80.9004V18.295H79.4974V17.375H80.9004V14.086C80.9004 13.2427 81.023 12.4913 81.2684 11.832C81.5137 11.1727 81.851 10.6207 82.2804 10.176C82.7097 9.73133 83.208 9.394 83.7754 9.164C84.358 8.91867 84.9867 8.78067 85.6614 8.75V9.647C85.14 9.66233 84.6417 9.76967 84.1664 9.969C83.7064 10.1683 83.3077 10.4597 82.9704 10.843C82.6177 11.2263 82.3417 11.6863 82.1424 12.223C81.943 12.7597 81.8434 13.373 81.8434 14.063V17.375H84.7184V18.295H81.8434V25.103H83.9364V26ZM90.9683 18.111C90.3856 18.111 89.8489 18.2337 89.3583 18.479C88.8829 18.7243 88.4843 19.054 88.1623 19.468C87.8556 19.8667 87.6409 20.319 87.5183 20.825C87.3956 21.3157 87.3879 21.8217 87.4953 22.343C88.5379 21.929 89.5729 21.5227 90.6003 21.124C91.6429 20.71 92.6856 20.296 93.7283 19.882C93.4523 19.3607 93.0689 18.939 92.5783 18.617C92.1029 18.2797 91.5663 18.111 90.9683 18.111ZM93.9813 24.965C93.5826 25.333 93.1303 25.6243 92.6243 25.839C92.1183 26.0537 91.5663 26.161 90.9683 26.161C90.3396 26.161 89.7493 26.046 89.1973 25.816C88.6606 25.586 88.1853 25.264 87.7713 24.85C87.3573 24.436 87.0353 23.9607 86.8053 23.424C86.5753 22.8873 86.4603 22.3047 86.4603 21.676C86.4603 21.0627 86.5753 20.48 86.8053 19.928C87.0353 19.376 87.3573 18.9007 87.7713 18.502C88.1853 18.1033 88.6606 17.789 89.1973 17.559C89.7493 17.3137 90.3396 17.191 90.9683 17.191C91.4436 17.191 91.8959 17.2753 92.3253 17.444C92.7546 17.5973 93.1379 17.8273 93.4753 18.134C93.7973 18.41 94.0809 18.7473 94.3263 19.146C94.5716 19.5293 94.7709 19.951 94.9243 20.411C93.7283 20.8863 92.5323 21.354 91.3363 21.814C90.1556 22.274 88.9673 22.7493 87.7713 23.24C88.0473 23.838 88.4689 24.321 89.0363 24.689C89.6036 25.057 90.2476 25.241 90.9683 25.241C91.4436 25.241 91.8883 25.1567 92.3023 24.988C92.7163 24.8193 93.0843 24.5817 93.4063 24.275L93.9813 24.965ZM101.121 18.111C100.538 18.111 100.001 18.2337 99.5106 18.479C99.0353 18.7243 98.6366 19.054 98.3146 19.468C98.008 19.8667 97.7933 20.319 97.6706 20.825C97.548 21.3157 97.5403 21.8217 97.6476 22.343C98.6903 21.929 99.7253 21.5227 100.753 21.124C101.795 20.71 102.838 20.296 103.881 19.882C103.605 19.3607 103.221 18.939 102.731 18.617C102.255 18.2797 101.719 18.111 101.121 18.111ZM104.134 24.965C103.735 25.333 103.283 25.6243 102.777 25.839C102.271 26.0537 101.719 26.161 101.121 26.161C100.492 26.161 99.9016 26.046 99.3496 25.816C98.813 25.586 98.3376 25.264 97.9236 24.85C97.5096 24.436 97.1876 23.9607 96.9576 23.424C96.7276 22.8873 96.6126 22.3047 96.6126 21.676C96.6126 21.0627 96.7276 20.48 96.9576 19.928C97.1876 19.376 97.5096 18.9007 97.9236 18.502C98.3376 18.1033 98.813 17.789 99.3496 17.559C99.9016 17.3137 100.492 17.191 101.121 17.191C101.596 17.191 102.048 17.2753 102.478 17.444C102.907 17.5973 103.29 17.8273 103.628 18.134C103.95 18.41 104.233 18.7473 104.479 19.146C104.724 19.5293 104.923 19.951 105.077 20.411C103.881 20.8863 102.685 21.354 101.489 21.814C100.308 22.274 99.1196 22.7493 97.9236 23.24C98.1996 23.838 98.6213 24.321 99.1886 24.689C99.756 25.057 100.4 25.241 101.121 25.241C101.596 25.241 102.041 25.1567 102.455 24.988C102.869 24.8193 103.237 24.5817 103.559 24.275L104.134 24.965Z" fill="#DCA190"/>
<path d="M52.626 39H52.1748V34.4917L50.3018 38.1387H49.8813L48.0151 34.5122V39H47.564V33.873H48.1553L50.0933 37.6704L52.0244 33.873H52.626V39ZM56.4199 39H56.061L56.0269 38.4292C55.9129 38.6252 55.7534 38.7812 55.5483 38.8975C55.3433 39.0114 55.1097 39.0684 54.8477 39.0684C54.6061 39.0684 54.3896 39.0216 54.1982 38.9282C54.0091 38.8325 53.8599 38.7026 53.7505 38.5386C53.6411 38.3722 53.5864 38.1842 53.5864 37.9746C53.5864 37.7559 53.6457 37.5622 53.7642 37.3936C53.8826 37.2249 54.0456 37.0928 54.2529 36.9971C54.4603 36.8991 54.6961 36.8501 54.9604 36.8501C55.145 36.8501 55.3285 36.874 55.5107 36.9219C55.693 36.9697 55.856 37.0369 55.9995 37.1235V36.8911C55.9995 36.6838 55.9539 36.506 55.8628 36.3579C55.7716 36.2098 55.6463 36.097 55.4868 36.0195C55.3296 35.9398 55.1507 35.8999 54.9502 35.8999C54.777 35.8999 54.6038 35.9318 54.4307 35.9956C54.2575 36.0571 54.0957 36.1494 53.9453 36.2725L53.7949 35.9102C53.9818 35.7803 54.1812 35.6823 54.3931 35.6162C54.6073 35.5479 54.8203 35.5137 55.0322 35.5137C55.3171 35.5137 55.562 35.5718 55.7671 35.688C55.9744 35.8042 56.1351 35.9694 56.249 36.1836C56.363 36.3955 56.4199 36.6484 56.4199 36.9424V39ZM54.916 38.6821C55.1143 38.6821 55.2931 38.64 55.4526 38.5557C55.6144 38.4691 55.7443 38.3483 55.8423 38.1934C55.9403 38.0361 55.9927 37.8561 55.9995 37.6533V37.5371C55.8582 37.43 55.7044 37.3491 55.5381 37.2944C55.374 37.2375 55.2031 37.209 55.0254 37.209C54.736 37.209 54.4956 37.2785 54.3042 37.4175C54.1151 37.5565 54.0205 37.7354 54.0205 37.9541C54.0205 38.0908 54.0592 38.215 54.1367 38.3267C54.2165 38.436 54.3236 38.5226 54.458 38.5864C54.5947 38.6502 54.7474 38.6821 54.916 38.6821ZM60.2891 38.5249C60.125 38.6981 59.9313 38.8325 59.708 38.9282C59.487 39.0216 59.2477 39.0684 58.9902 39.0684C58.653 39.0684 58.3499 38.9909 58.0811 38.8359C57.8145 38.681 57.6037 38.4691 57.4487 38.2002C57.2938 37.9313 57.2163 37.6283 57.2163 37.291C57.2163 36.9515 57.2938 36.6484 57.4487 36.3818C57.6037 36.113 57.8145 35.901 58.0811 35.7461C58.3499 35.5911 58.653 35.5137 58.9902 35.5137C59.2454 35.5137 59.4847 35.5604 59.708 35.6538C59.9313 35.7472 60.1239 35.8805 60.2856 36.0537L60.0293 36.3237C59.9017 36.1893 59.749 36.0856 59.5713 36.0127C59.3958 35.9375 59.2078 35.8999 59.0073 35.8999C58.7453 35.8999 58.5117 35.9603 58.3066 36.0811C58.1038 36.1995 57.9432 36.3636 57.8247 36.5732C57.7085 36.7829 57.6504 37.021 57.6504 37.2876C57.6504 37.5565 57.7085 37.7969 57.8247 38.0088C57.9432 38.2184 58.1038 38.3836 58.3066 38.5044C58.5117 38.6229 58.7453 38.6821 59.0073 38.6821C59.2078 38.6821 59.397 38.6457 59.5747 38.5728C59.7524 38.4976 59.904 38.3927 60.0293 38.2583L60.2891 38.5249ZM61.1538 39V33.873H61.5742V36.1938C61.8203 35.7404 62.2373 35.5137 62.8252 35.5137C63.2786 35.5137 63.6318 35.6493 63.8848 35.9204C64.14 36.1916 64.2676 36.571 64.2676 37.0586V39H63.8472V37.144C63.8472 36.7498 63.748 36.4434 63.5498 36.2246C63.3516 36.0036 63.0758 35.8931 62.7227 35.8931C62.3672 35.8931 62.0869 36.0047 61.8818 36.228C61.6768 36.4513 61.5742 36.7567 61.5742 37.144V39H61.1538ZM65.5698 34.3823C65.4901 34.3823 65.4229 34.355 65.3682 34.3003C65.3158 34.2433 65.2896 34.175 65.2896 34.0952C65.2896 34.0177 65.3158 33.9517 65.3682 33.897C65.4229 33.8423 65.4901 33.8149 65.5698 33.8149C65.6519 33.8149 65.7202 33.8423 65.7749 33.897C65.8319 33.9517 65.8604 34.0177 65.8604 34.0952C65.8604 34.175 65.8319 34.2433 65.7749 34.3003C65.7202 34.355 65.6519 34.3823 65.5698 34.3823ZM65.7817 39H65.3613V35.582H65.7817V39ZM70.0576 39H69.6372V37.0859C69.6372 36.7214 69.5369 36.4331 69.3364 36.2212C69.1359 36.007 68.8659 35.8999 68.5264 35.8999C68.1755 35.8999 67.894 36.0127 67.6821 36.2383C67.4702 36.4616 67.3643 36.7601 67.3643 37.1338V39H66.9438V35.582H67.3164L67.3301 36.2246C67.4486 35.9945 67.6149 35.819 67.8291 35.6982C68.0433 35.5752 68.2985 35.5137 68.5947 35.5137C69.0505 35.5137 69.4082 35.6504 69.668 35.9238C69.9277 36.1973 70.0576 36.5755 70.0576 37.0586V39ZM74.0874 38.5728C73.6681 38.9032 73.2033 39.0684 72.6929 39.0684C72.3397 39.0684 72.0229 38.9897 71.7427 38.8325C71.4647 38.673 71.2459 38.4565 71.0864 38.1831C70.9269 37.9097 70.8472 37.5998 70.8472 37.2534C70.8472 36.9185 70.9212 36.62 71.0693 36.3579C71.2197 36.0959 71.4248 35.8896 71.6846 35.7393C71.9443 35.5889 72.2394 35.5137 72.5698 35.5137C72.9048 35.5137 73.1999 35.5934 73.4551 35.7529C73.7103 35.9102 73.9097 36.1289 74.0532 36.4092C74.1968 36.6872 74.2686 37.0096 74.2686 37.3765V37.4824H71.3018C71.3291 37.7217 71.4077 37.9313 71.5376 38.1113C71.6698 38.2913 71.8384 38.4315 72.0435 38.5317C72.2485 38.632 72.4787 38.6821 72.7339 38.6821C73.1532 38.6821 73.5382 38.5431 73.8892 38.2651L74.0874 38.5728ZM71.2881 37.1201H73.8755C73.855 36.8763 73.7878 36.6632 73.6738 36.481C73.5599 36.2987 73.4095 36.1562 73.2227 36.0537C73.0381 35.9512 72.8273 35.8999 72.5903 35.8999C72.3511 35.8999 72.1357 35.9512 71.9443 36.0537C71.7552 36.1562 71.6025 36.2998 71.4863 36.4844C71.3724 36.6667 71.3063 36.8786 71.2881 37.1201ZM74.8872 38.7026L75.0103 38.313C75.0946 38.3905 75.188 38.4565 75.2905 38.5112C75.3953 38.5659 75.5036 38.6081 75.6152 38.6377C75.7292 38.6673 75.8442 38.6821 75.9604 38.6821C76.1929 38.6821 76.382 38.6252 76.5278 38.5112C76.6737 38.3973 76.7466 38.2492 76.7466 38.0669C76.7466 37.937 76.7101 37.8311 76.6372 37.749C76.5643 37.6647 76.4686 37.5929 76.3501 37.5337C76.2316 37.4744 76.1063 37.4186 75.9741 37.3662C75.8215 37.307 75.6722 37.2409 75.5264 37.168C75.3805 37.0928 75.2598 36.9959 75.1641 36.8774C75.0706 36.759 75.0239 36.6029 75.0239 36.4092C75.0239 36.2269 75.0684 36.0697 75.1572 35.9375C75.2484 35.8031 75.3748 35.6994 75.5366 35.6265C75.7007 35.5513 75.8898 35.5137 76.104 35.5137C76.4116 35.5137 76.7147 35.5889 77.0132 35.7393L76.8833 36.1187C76.8127 36.0754 76.7329 36.0378 76.644 36.0059C76.5552 35.9717 76.464 35.9455 76.3706 35.9272C76.2772 35.909 76.1883 35.8999 76.104 35.8999C75.9103 35.8999 75.7542 35.9466 75.6357 36.04C75.5173 36.1312 75.458 36.252 75.458 36.4023C75.458 36.5003 75.4842 36.5858 75.5366 36.6587C75.5913 36.7293 75.6733 36.7954 75.7827 36.8569C75.8921 36.9185 76.0288 36.9834 76.1929 37.0518C76.3501 37.1156 76.5039 37.1885 76.6543 37.2705C76.8047 37.3503 76.9289 37.4528 77.0269 37.5781C77.1271 37.7035 77.1772 37.8664 77.1772 38.0669C77.1772 38.2629 77.126 38.4372 77.0234 38.5898C76.9232 38.7402 76.783 38.8576 76.603 38.9419C76.4253 39.0262 76.2179 39.0684 75.981 39.0684C75.5868 39.0684 75.2222 38.9465 74.8872 38.7026Z" fill="#47251B"/>
</svg>
