<svg width="141" height="62" viewBox="0 0 141 62" fill="none" xmlns="http://www.w3.org/2000/svg">
<path d="M13.5 52.6565C28.9959 57.8734 40.7352 48.3469 41.9091 30.2011C41.9091 27.4793 41.0639 25.8915 37.6829 24.0769" stroke="#47251B" stroke-width="2"/>
<path d="M9.61041 51.7692C5.74151 49.0034 0.91502 38.8752 1.00114 28.3838C1.00493 27.9215 1.62686 27.7156 1.95288 28.0391C9.14515 35.1759 35.7289 35.5383 41.9316 28.9189C41.9594 28.8892 41.9906 28.8633 42.0249 28.8415C49.8562 23.8598 56.8852 33.9156 43.3997 46.2265" stroke="#47251B" stroke-width="2"/>
<path d="M5.54547 59.8688C29.8026 62.9874 50.5271 59.2005 38.2808 54.0769" stroke="#47251B" stroke-width="2" stroke-linecap="square"/>
<path d="M21.4546 24.0769C20.9468 23.6288 22.9778 19.82 15.6156 14.6669C9.72596 10.5444 13.1616 3.83794 15.6156 1" stroke="#47251B" stroke-width="2"/>
<path d="M21.729 27.5385C28.0021 25.9391 30.4665 20.9124 25.9858 15.4288C22.6252 11.3161 18.5477 8.11729 19.2646 4.46154" stroke="#47251B" stroke-width="2"/>
<path d="M81.22 40.74C80.42 41.2 79.56 41.57 78.64 41.85C77.74 42.11 76.78 42.24 75.76 42.24C74.28 42.24 72.89 41.96 71.59 41.4C70.29 40.84 69.16 40.07 68.2 39.09C67.22 38.13 66.45 37 65.89 35.7C65.33 34.4 65.05 33.01 65.05 31.53C65.05 30.05 65.33 28.66 65.89 27.36C66.45 26.04 67.22 24.89 68.2 23.91C69.16 22.95 70.29 22.19 71.59 21.63C72.89 21.05 74.28 20.76 75.76 20.76C76.78 20.76 77.74 20.89 78.64 21.15C79.56 21.41 80.43 21.78 81.25 22.26V25.62H80.08V23.01C79.42 22.67 78.72 22.41 77.98 22.23C77.26 22.03 76.52 21.93 75.76 21.93C74.44 21.93 73.21 22.19 72.07 22.71C70.93 23.21 69.93 23.9 69.07 24.78C68.21 25.64 67.53 26.66 67.03 27.84C66.53 29 66.28 30.24 66.28 31.56C66.28 32.86 66.53 34.09 67.03 35.25C67.53 36.41 68.21 37.41 69.07 38.25C69.91 39.11 70.9 39.8 72.04 40.32C73.18 40.82 74.4 41.07 75.7 41.07C76.58 41.07 77.42 40.96 78.22 40.74C79.04 40.5 79.81 40.17 80.53 39.75L81.22 40.74ZM93.5005 40.5C92.9605 41.04 92.3205 41.46 91.5805 41.76C90.8605 42.06 90.0905 42.21 89.2705 42.21C88.4305 42.21 87.6505 42.06 86.9305 41.76C86.2305 41.46 85.6205 41.04 85.1005 40.5C84.5605 39.98 84.1405 39.37 83.8405 38.67C83.5405 37.95 83.3905 37.18 83.3905 36.36C83.3905 35.56 83.5405 34.8 83.8405 34.08C84.1405 33.36 84.5605 32.73 85.1005 32.19C85.6205 31.67 86.2405 31.26 86.9605 30.96C87.6805 30.64 88.4505 30.48 89.2705 30.48C90.0905 30.48 90.8605 30.64 91.5805 30.96C92.3205 31.26 92.9605 31.67 93.5005 32.19C94.0205 32.73 94.4305 33.36 94.7305 34.08C95.0505 34.8 95.2105 35.56 95.2105 36.36C95.2105 37.18 95.0505 37.94 94.7305 38.64C94.4305 39.34 94.0205 39.96 93.5005 40.5ZM85.9705 39.63C86.3905 40.07 86.8805 40.41 87.4405 40.65C88.0005 40.89 88.6005 41.01 89.2405 41.01C89.8805 41.01 90.4805 40.89 91.0405 40.65C91.6205 40.41 92.1205 40.07 92.5405 39.63C92.9805 39.23 93.3205 38.75 93.5605 38.19C93.8005 37.63 93.9205 37.02 93.9205 36.36C93.9205 35.74 93.8005 35.15 93.5605 34.59C93.3205 34.01 92.9805 33.5 92.5405 33.06C92.1205 32.64 91.6205 32.31 91.0405 32.07C90.4805 31.83 89.8805 31.71 89.2405 31.71C88.6005 31.71 88.0005 31.83 87.4405 32.07C86.8805 32.31 86.3905 32.64 85.9705 33.06C85.5505 33.5 85.2205 34 84.9805 34.56C84.7405 35.12 84.6205 35.72 84.6205 36.36C84.6205 37.02 84.7405 37.63 84.9805 38.19C85.2205 38.75 85.5505 39.23 85.9705 39.63ZM103.096 42H97.3059V40.83H99.1359V31.95H97.3059V30.75H99.1359V26.46C99.1359 25.36 99.2959 24.38 99.6159 23.52C99.9359 22.66 100.376 21.94 100.936 21.36C101.496 20.78 102.146 20.34 102.886 20.04C103.646 19.72 104.466 19.54 105.346 19.5V20.67C104.666 20.69 104.016 20.83 103.396 21.09C102.796 21.35 102.276 21.73 101.836 22.23C101.376 22.73 101.016 23.33 100.756 24.03C100.496 24.73 100.366 25.53 100.366 26.43V30.75H104.116V31.95H100.366V40.83H103.096V42ZM112.178 42H106.388V40.83H108.218V31.95H106.388V30.75H108.218V26.46C108.218 25.36 108.378 24.38 108.698 23.52C109.018 22.66 109.458 21.94 110.018 21.36C110.578 20.78 111.228 20.34 111.968 20.04C112.728 19.72 113.548 19.54 114.428 19.5V20.67C113.748 20.69 113.098 20.83 112.478 21.09C111.878 21.35 111.358 21.73 110.918 22.23C110.458 22.73 110.098 23.33 109.838 24.03C109.578 24.73 109.448 25.53 109.448 26.43V30.75H113.198V31.95H109.448V40.83H112.178V42ZM121.35 31.71C120.59 31.71 119.89 31.87 119.25 32.19C118.63 32.51 118.11 32.94 117.69 33.48C117.29 34 117.01 34.59 116.85 35.25C116.69 35.89 116.68 36.55 116.82 37.23C118.18 36.69 119.53 36.16 120.87 35.64C122.23 35.1 123.59 34.56 124.95 34.02C124.59 33.34 124.09 32.79 123.45 32.37C122.83 31.93 122.13 31.71 121.35 31.71ZM125.28 40.65C124.76 41.13 124.17 41.51 123.51 41.79C122.85 42.07 122.13 42.21 121.35 42.21C120.53 42.21 119.76 42.06 119.04 41.76C118.34 41.46 117.72 41.04 117.18 40.5C116.64 39.96 116.22 39.34 115.92 38.64C115.62 37.94 115.47 37.18 115.47 36.36C115.47 35.56 115.62 34.8 115.92 34.08C116.22 33.36 116.64 32.74 117.18 32.22C117.72 31.7 118.34 31.29 119.04 30.99C119.76 30.67 120.53 30.51 121.35 30.51C121.97 30.51 122.56 30.62 123.12 30.84C123.68 31.04 124.18 31.34 124.62 31.74C125.04 32.1 125.41 32.54 125.73 33.06C126.05 33.56 126.31 34.11 126.51 34.71C124.95 35.33 123.39 35.94 121.83 36.54C120.29 37.14 118.74 37.76 117.18 38.4C117.54 39.18 118.09 39.81 118.83 40.29C119.57 40.77 120.41 41.01 121.35 41.01C121.97 41.01 122.55 40.9 123.09 40.68C123.63 40.46 124.11 40.15 124.53 39.75L125.28 40.65ZM134.592 31.71C133.832 31.71 133.132 31.87 132.492 32.19C131.872 32.51 131.352 32.94 130.932 33.48C130.532 34 130.252 34.59 130.092 35.25C129.932 35.89 129.922 36.55 130.062 37.23C131.422 36.69 132.772 36.16 134.112 35.64C135.472 35.1 136.832 34.56 138.192 34.02C137.832 33.34 137.332 32.79 136.692 32.37C136.072 31.93 135.372 31.71 134.592 31.71ZM138.522 40.65C138.002 41.13 137.412 41.51 136.752 41.79C136.092 42.07 135.372 42.21 134.592 42.21C133.772 42.21 133.002 42.06 132.282 41.76C131.582 41.46 130.962 41.04 130.422 40.5C129.882 39.96 129.462 39.34 129.162 38.64C128.862 37.94 128.712 37.18 128.712 36.36C128.712 35.56 128.862 34.8 129.162 34.08C129.462 33.36 129.882 32.74 130.422 32.22C130.962 31.7 131.582 31.29 132.282 30.99C133.002 30.67 133.772 30.51 134.592 30.51C135.212 30.51 135.802 30.62 136.362 30.84C136.922 31.04 137.422 31.34 137.862 31.74C138.282 32.1 138.652 32.54 138.972 33.06C139.292 33.56 139.552 34.11 139.752 34.71C138.192 35.33 136.632 35.94 135.072 36.54C133.532 37.14 131.982 37.76 130.422 38.4C130.782 39.18 131.332 39.81 132.072 40.29C132.812 40.77 133.652 41.01 134.592 41.01C135.212 41.01 135.792 40.9 136.332 40.68C136.872 40.46 137.352 40.15 137.772 39.75L138.522 40.65Z" fill="#DCA190"/>
<path d="M73.6445 58H72.8711V50.2715L69.6602 56.5234H68.9395L65.7402 50.3066V58H64.9668V49.2109H65.9805L69.3027 55.7207L72.6133 49.2109H73.6445V58ZM80.1484 58H79.5332L79.4746 57.0215C79.2793 57.3574 79.0059 57.625 78.6543 57.8242C78.3027 58.0195 77.9023 58.1172 77.4531 58.1172C77.0391 58.1172 76.668 58.0371 76.3398 57.877C76.0156 57.7129 75.7598 57.4902 75.5723 57.209C75.3848 56.9238 75.291 56.6016 75.291 56.2422C75.291 55.8672 75.3926 55.5352 75.5957 55.2461C75.7988 54.957 76.0781 54.7305 76.4336 54.5664C76.7891 54.3984 77.1934 54.3145 77.6465 54.3145C77.9629 54.3145 78.2773 54.3555 78.5898 54.4375C78.9023 54.5195 79.1816 54.6348 79.4277 54.7832V54.3848C79.4277 54.0293 79.3496 53.7246 79.1934 53.4707C79.0371 53.2168 78.8223 53.0234 78.5488 52.8906C78.2793 52.7539 77.9727 52.6855 77.6289 52.6855C77.332 52.6855 77.0352 52.7402 76.7383 52.8496C76.4414 52.9551 76.1641 53.1133 75.9062 53.3242L75.6484 52.7031C75.9688 52.4805 76.3105 52.3125 76.6738 52.1992C77.041 52.082 77.4062 52.0234 77.7695 52.0234C78.2578 52.0234 78.6777 52.123 79.0293 52.3223C79.3848 52.5215 79.6602 52.8047 79.8555 53.1719C80.0508 53.5352 80.1484 53.9688 80.1484 54.4727V58ZM77.5703 57.4551C77.9102 57.4551 78.2168 57.3828 78.4902 57.2383C78.7676 57.0898 78.9902 56.8828 79.1582 56.6172C79.3262 56.3477 79.416 56.0391 79.4277 55.6914V55.4922C79.1855 55.3086 78.9219 55.1699 78.6367 55.0762C78.3555 54.9785 78.0625 54.9297 77.7578 54.9297C77.2617 54.9297 76.8496 55.0488 76.5215 55.2871C76.1973 55.5254 76.0352 55.832 76.0352 56.207C76.0352 56.4414 76.1016 56.6543 76.2344 56.8457C76.3711 57.0332 76.5547 57.1816 76.7852 57.291C77.0195 57.4004 77.2812 57.4551 77.5703 57.4551ZM86.7812 57.1855C86.5 57.4824 86.168 57.7129 85.7852 57.877C85.4062 58.0371 84.9961 58.1172 84.5547 58.1172C83.9766 58.1172 83.457 57.9844 82.9961 57.7188C82.5391 57.4531 82.1777 57.0898 81.9121 56.6289C81.6465 56.168 81.5137 55.6484 81.5137 55.0703C81.5137 54.4883 81.6465 53.9688 81.9121 53.5117C82.1777 53.0508 82.5391 52.6875 82.9961 52.4219C83.457 52.1562 83.9766 52.0234 84.5547 52.0234C84.9922 52.0234 85.4023 52.1035 85.7852 52.2637C86.168 52.4238 86.498 52.6523 86.7754 52.9492L86.3359 53.4121C86.1172 53.1816 85.8555 53.0039 85.5508 52.8789C85.25 52.75 84.9277 52.6855 84.584 52.6855C84.1348 52.6855 83.7344 52.7891 83.3828 52.9961C83.0352 53.1992 82.7598 53.4805 82.5566 53.8398C82.3574 54.1992 82.2578 54.6074 82.2578 55.0645C82.2578 55.5254 82.3574 55.9375 82.5566 56.3008C82.7598 56.6602 83.0352 56.9434 83.3828 57.1504C83.7344 57.3535 84.1348 57.4551 84.584 57.4551C84.9277 57.4551 85.252 57.3926 85.5566 57.2676C85.8613 57.1387 86.1211 56.959 86.3359 56.7285L86.7812 57.1855ZM88.2637 58V49.2109H88.9844V53.1895C89.4062 52.4121 90.1211 52.0234 91.1289 52.0234C91.9062 52.0234 92.5117 52.2559 92.9453 52.7207C93.3828 53.1855 93.6016 53.8359 93.6016 54.6719V58H92.8809V54.8184C92.8809 54.1426 92.7109 53.6172 92.3711 53.2422C92.0312 52.8633 91.5586 52.6738 90.9531 52.6738C90.3438 52.6738 89.8633 52.8652 89.5117 53.248C89.1602 53.6309 88.9844 54.1543 88.9844 54.8184V58H88.2637ZM95.834 50.084C95.6973 50.084 95.582 50.0371 95.4883 49.9434C95.3984 49.8457 95.3535 49.7285 95.3535 49.5918C95.3535 49.459 95.3984 49.3457 95.4883 49.252C95.582 49.1582 95.6973 49.1113 95.834 49.1113C95.9746 49.1113 96.0918 49.1582 96.1855 49.252C96.2832 49.3457 96.332 49.459 96.332 49.5918C96.332 49.7285 96.2832 49.8457 96.1855 49.9434C96.0918 50.0371 95.9746 50.084 95.834 50.084ZM96.1973 58H95.4766V52.1406H96.1973V58ZM103.527 58H102.807V54.7188C102.807 54.0938 102.635 53.5996 102.291 53.2363C101.947 52.8691 101.484 52.6855 100.902 52.6855C100.301 52.6855 99.8184 52.8789 99.4551 53.2656C99.0918 53.6484 98.9102 54.1602 98.9102 54.8008V58H98.1895V52.1406H98.8281L98.8516 53.2422C99.0547 52.8477 99.3398 52.5469 99.707 52.3398C100.074 52.1289 100.512 52.0234 101.02 52.0234C101.801 52.0234 102.414 52.2578 102.859 52.7266C103.305 53.1953 103.527 53.8438 103.527 54.6719V58ZM110.436 57.2676C109.717 57.834 108.92 58.1172 108.045 58.1172C107.439 58.1172 106.896 57.9824 106.416 57.7129C105.939 57.4395 105.564 57.0684 105.291 56.5996C105.018 56.1309 104.881 55.5996 104.881 55.0059C104.881 54.4316 105.008 53.9199 105.262 53.4707C105.52 53.0215 105.871 52.668 106.316 52.4102C106.762 52.1523 107.268 52.0234 107.834 52.0234C108.408 52.0234 108.914 52.1602 109.352 52.4336C109.789 52.7031 110.131 53.0781 110.377 53.5586C110.623 54.0352 110.746 54.5879 110.746 55.2168V55.3984H105.66C105.707 55.8086 105.842 56.168 106.064 56.4766C106.291 56.7852 106.58 57.0254 106.932 57.1973C107.283 57.3691 107.678 57.4551 108.115 57.4551C108.834 57.4551 109.494 57.2168 110.096 56.7402L110.436 57.2676ZM105.637 54.7773H110.072C110.037 54.3594 109.922 53.9941 109.727 53.6816C109.531 53.3691 109.273 53.125 108.953 52.9492C108.637 52.7734 108.275 52.6855 107.869 52.6855C107.459 52.6855 107.09 52.7734 106.762 52.9492C106.438 53.125 106.176 53.3711 105.977 53.6875C105.781 54 105.668 54.3633 105.637 54.7773ZM111.807 57.4902L112.018 56.8223C112.162 56.9551 112.322 57.0684 112.498 57.1621C112.678 57.2559 112.863 57.3281 113.055 57.3789C113.25 57.4297 113.447 57.4551 113.646 57.4551C114.045 57.4551 114.369 57.3574 114.619 57.1621C114.869 56.9668 114.994 56.7129 114.994 56.4004C114.994 56.1777 114.932 55.9961 114.807 55.8555C114.682 55.7109 114.518 55.5879 114.314 55.4863C114.111 55.3848 113.896 55.2891 113.67 55.1992C113.408 55.0977 113.152 54.9844 112.902 54.8594C112.652 54.7305 112.445 54.5645 112.281 54.3613C112.121 54.1582 112.041 53.8906 112.041 53.5586C112.041 53.2461 112.117 52.9766 112.27 52.75C112.426 52.5195 112.643 52.3418 112.92 52.2168C113.201 52.0879 113.525 52.0234 113.893 52.0234C114.42 52.0234 114.939 52.1523 115.451 52.4102L115.229 53.0605C115.107 52.9863 114.971 52.9219 114.818 52.8672C114.666 52.8086 114.51 52.7637 114.35 52.7324C114.189 52.7012 114.037 52.6855 113.893 52.6855C113.561 52.6855 113.293 52.7656 113.09 52.9258C112.887 53.082 112.785 53.2891 112.785 53.5469C112.785 53.7148 112.83 53.8613 112.92 53.9863C113.014 54.1074 113.154 54.2207 113.342 54.3262C113.529 54.4316 113.764 54.543 114.045 54.6602C114.314 54.7695 114.578 54.8945 114.836 55.0352C115.094 55.1719 115.307 55.3477 115.475 55.5625C115.646 55.7773 115.732 56.0566 115.732 56.4004C115.732 56.7363 115.645 57.0352 115.469 57.2969C115.297 57.5547 115.057 57.7559 114.748 57.9004C114.443 58.0449 114.088 58.1172 113.682 58.1172C113.006 58.1172 112.381 57.9082 111.807 57.4902Z" fill="#47251B"/>
</svg>
