<svg width="28" height="28" viewBox="0 0 28 28" fill="none" xmlns="http://www.w3.org/2000/svg">
<path d="M25.0303 26.961C11.2424 25.7628 2.18182 15.7778 1 2.5976C1 1.31952 1.78788 1 2.18182 1H8.09091C9.03636 1 9.53535 2.33133 9.66667 2.997C9.79798 3.66266 10.1394 5.31352 10.4545 6.59159C10.7697 7.86967 10.5859 8.72173 10.4545 8.98799L7.69697 11.7838C8.64242 15.2985 14.1313 18.8398 16.7576 20.1712C17.5455 18.8398 19.5152 16.976 20.697 17.3754C22.5656 18.0069 25.0303 18.5736 25.8182 18.5736C26.4485 18.5736 26.8687 19.6386 27 20.1712V25.3634C27 26.961 25.6869 27.0941 25.0303 26.961Z" stroke="#BBBBBB" stroke-width="2"/>
</svg>
