<svg width="28" height="25" viewBox="0 0 28 25" fill="none" xmlns="http://www.w3.org/2000/svg">
<path d="M25.6216 0.00227424C25.217 0.0197177 24.8457 0.13505 24.5195 0.26247C24.2182 0.38009 23.136 0.830872 21.4129 1.54718C19.6897 2.2635 17.4064 3.21324 14.9726 4.22774C10.105 6.25674 4.63506 8.53911 1.83226 9.7081C1.73602 9.74785 1.34512 9.86645 0.913398 10.1933C0.480672 10.5208 0 11.2317 0 12.0092C0 12.6364 0.3159 13.2751 0.697355 13.6408C1.07881 14.0066 1.4654 14.1775 1.78851 14.3049C2.73376 14.678 5.65474 15.8341 6.92432 16.3377C7.36908 17.6587 8.4137 20.7703 8.65814 21.5361H8.6554C8.85424 22.1595 9.04806 22.5658 9.3172 22.9049C9.45178 23.0744 9.61241 23.2281 9.80945 23.3494C9.88506 23.3959 9.96877 23.432 10.0528 23.4659C10.0646 23.4709 10.0766 23.4721 10.0884 23.4768L10.0556 23.4686C10.08 23.4784 10.1018 23.4927 10.1267 23.5012C10.1672 23.515 10.1952 23.5145 10.2497 23.5256C10.4416 23.584 10.6331 23.6231 10.8104 23.6231C11.5715 23.6231 12.0383 23.2139 12.0383 23.2139L12.0683 23.1922L15.3555 20.4357L19.381 24.1246C19.453 24.2254 20.0285 25 21.3637 25C22.1591 25 22.7908 24.6125 23.1932 24.2032C23.5956 23.7938 23.8462 23.375 23.9589 22.8073V22.8019V22.7992C24.0372 22.3962 27.9024 3.16798 27.9024 3.16798L27.8942 3.20051C28.0142 2.66993 28.0495 2.15681 27.9079 1.63392C27.7662 1.11102 27.3838 0.600724 26.9234 0.332939C26.4629 0.0651547 26.0262 -0.0151698 25.6216 0.00227424ZM25.0692 3.0406C24.9174 3.79607 21.4777 20.9228 21.2543 22.0593L17.2561 18.3975C16.2255 17.4532 14.6185 17.42 13.5478 18.3162L11.5077 20.0265L12.5961 15.8091C12.5961 15.8091 20.1047 8.27646 20.5569 7.83795C20.921 7.48686 20.9972 7.36379 20.9972 7.24167C20.9972 7.07931 20.9129 6.9625 20.7183 6.9625C20.5432 6.9625 20.3055 7.12872 20.1795 7.20643C18.5714 8.20008 11.6862 12.089 8.35185 13.9688C8.2266 13.8945 8.1034 13.8173 7.96625 13.7628C6.87218 13.3288 4.76932 12.4933 3.53873 12.0065C6.44307 10.795 11.4216 8.71907 16.0583 6.78633C18.4917 5.772 20.7743 4.8214 22.4958 4.10577C23.949 3.50169 24.707 3.18891 25.0692 3.0406ZM21.2105 22.2598H21.2133L21.2105 22.2707C21.2129 22.2588 21.2089 22.2684 21.2105 22.2598Z" fill="#BBBBBB"/>
</svg>
